<svg width="35" height="25" viewBox="0 0 35 25" fill="none" xmlns="http://www.w3.org/2000/svg">
<path fill-rule="evenodd" clip-rule="evenodd" d="M35 3.85683H25.3543V6.25064H28.3962V9.5987H25.3543V18.6581C25.3543 19.1724 25.4197 19.5663 25.5505 19.8398C25.6923 20.1133 25.8994 20.3048 26.172 20.4142C26.4445 20.5127 26.788 20.5619 27.2023 20.5619C27.4967 20.5619 27.7583 20.551 27.9873 20.5291C28.2272 20.4963 28.4289 20.4635 28.5924 20.4306L28.6088 23.91C28.2054 24.0413 27.7692 24.1452 27.3004 24.2218C26.8316 24.2984 26.3137 24.3367 25.7468 24.3367C24.711 24.3367 23.806 24.1671 23.0319 23.8279C22.2687 23.4778 21.68 22.9198 21.2657 22.1539C20.8514 21.388 20.6442 20.3814 20.6442 19.1341V9.5987H18.0929V6.25064H20.6442V3.85683H0V0H35V3.85683Z" fill="#059669"/>
</svg>
